<svg width="333" height="37" viewBox="0 0 333 37" fill="none" xmlns="http://www.w3.org/2000/svg">
<path d="M20.7393 24.3003H25.5723V27.9131H20.7393V36H16.2891V27.9131H0.42627V25.3052L16.0259 1.16406H20.7393V24.3003ZM5.45068 24.3003H16.2891V7.21729L15.7627 8.17432L5.45068 24.3003ZM51.3882 23.0083H39.7124V19.3955H51.3882V23.0083ZM57.2979 18.5342L59.0684 1.16406H76.917V5.25537H62.8247L61.772 14.7539C63.4787 13.749 65.4167 13.2466 67.5859 13.2466C70.7601 13.2466 73.2803 14.2993 75.1465 16.4048C77.0127 18.4943 77.9458 21.3255 77.9458 24.8984C77.9458 28.4873 76.9728 31.3185 75.0269 33.3921C73.0968 35.4497 70.3932 36.4785 66.916 36.4785C63.8376 36.4785 61.3254 35.6252 59.3794 33.9185C57.4334 32.2118 56.3249 29.8511 56.0537 26.8364H60.2407C60.5119 28.8302 61.2217 30.3376 62.3701 31.3584C63.5186 32.3633 65.0339 32.8657 66.916 32.8657C68.9736 32.8657 70.5846 32.1639 71.749 30.7603C72.9294 29.3566 73.5195 27.4186 73.5195 24.9463C73.5195 22.6175 72.8815 20.7513 71.6055 19.3477C70.3454 17.9281 68.6626 17.2183 66.5571 17.2183C64.6271 17.2183 63.1118 17.641 62.0112 18.4863L60.8389 19.4434L57.2979 18.5342ZM110.676 1.16406H115.294V25.8315C115.294 29.1652 114.289 31.7731 112.279 33.6553C110.285 35.5374 107.622 36.4785 104.288 36.4785C100.827 36.4785 98.1312 35.5933 96.2012 33.8228C94.2712 32.0522 93.3062 29.5719 93.3062 26.3818H97.8999C97.8999 28.3757 98.4422 29.9308 99.5269 31.0474C100.627 32.1639 102.215 32.7222 104.288 32.7222C106.186 32.7222 107.717 32.124 108.882 30.9277C110.062 29.7314 110.66 28.0566 110.676 25.9033V1.16406ZM147.642 1.16406V24.8506C147.626 28.1364 146.589 30.8241 144.531 32.9136C142.49 35.0031 139.714 36.1755 136.205 36.4307L134.985 36.4785C131.173 36.4785 128.134 35.4497 125.869 33.3921C123.604 31.3345 122.456 28.5033 122.424 24.8984V1.16406H126.97V24.7549C126.97 27.2751 127.664 29.237 129.051 30.6406C130.439 32.0283 132.417 32.7222 134.985 32.7222C137.585 32.7222 139.571 32.0283 140.942 30.6406C142.33 29.2529 143.024 27.299 143.024 24.7788V1.16406H147.642ZM181.664 36H177.046L159.509 9.15527V36H154.891V1.16406H159.509L177.094 28.1284V1.16406H181.664V36ZM209.514 19.8979H194.417V32.2437H211.954V36H189.823V1.16406H211.715V4.94434H194.417V16.1416H209.514V19.8979ZM251.503 36H228.678V32.8179L240.737 19.4194C242.523 17.3937 243.751 15.7508 244.421 14.4907C245.107 13.2147 245.45 11.8988 245.45 10.543C245.45 8.72461 244.9 7.23324 243.799 6.06885C242.699 4.90446 241.231 4.32227 239.397 4.32227C237.196 4.32227 235.481 4.95231 234.253 6.2124C233.041 7.45654 232.435 9.19515 232.435 11.4282H228.008C228.008 8.22217 229.037 5.63021 231.095 3.65234C233.168 1.67448 235.936 0.685547 239.397 0.685547C242.635 0.685547 245.195 1.5389 247.077 3.24561C248.959 4.93636 249.9 7.19336 249.9 10.0166C249.9 13.446 247.715 17.5293 243.345 22.2666L234.014 32.3872H251.503V36ZM278.037 21.1421C278.037 26.326 277.152 30.1781 275.381 32.6982C273.611 35.2184 270.843 36.4785 267.079 36.4785C263.363 36.4785 260.611 35.2503 258.825 32.7939C257.038 30.3216 256.113 26.637 256.049 21.7402V15.8306C256.049 10.7104 256.935 6.90625 258.705 4.41797C260.476 1.92969 263.251 0.685547 267.031 0.685547C270.78 0.685547 273.539 1.88981 275.31 4.29834C277.08 6.69092 277.989 10.3914 278.037 15.3999V21.1421ZM273.611 15.0889C273.611 11.3405 273.084 8.61296 272.032 6.90625C270.979 5.18359 269.312 4.32227 267.031 4.32227C264.766 4.32227 263.115 5.17562 262.079 6.88232C261.042 8.58903 260.507 11.2129 260.476 14.7539V21.8359C260.476 25.6003 261.018 28.3836 262.103 30.186C263.203 31.9725 264.862 32.8657 267.079 32.8657C269.264 32.8657 270.883 32.0203 271.936 30.3296C273.005 28.6388 273.563 25.9751 273.611 22.3384V15.0889ZM298.254 36H293.804V6.49951L284.88 9.77734V5.75781L297.561 0.996582H298.254V36ZM328.186 20.6875C327.26 21.7881 326.152 22.6733 324.86 23.3433C323.584 24.0132 322.18 24.3481 320.649 24.3481C318.639 24.3481 316.885 23.8537 315.385 22.8647C313.902 21.8758 312.753 20.4881 311.94 18.7017C311.126 16.8993 310.72 14.9134 310.72 12.7441C310.72 10.4154 311.158 8.31787 312.036 6.45166C312.929 4.58545 314.189 3.15788 315.816 2.16895C317.443 1.18001 319.341 0.685547 321.51 0.685547C324.956 0.685547 327.667 1.97754 329.645 4.56152C331.639 7.12956 332.636 10.6387 332.636 15.0889V16.3809C332.636 23.1598 331.296 28.1125 328.616 31.2388C325.937 34.3491 321.893 35.9442 316.486 36.0239H315.625V32.2915H316.558C320.21 32.2277 323.018 31.2786 324.979 29.4443C326.941 27.5941 328.01 24.6751 328.186 20.6875ZM321.367 20.6875C322.85 20.6875 324.214 20.2329 325.458 19.3237C326.718 18.4146 327.635 17.29 328.209 15.9502V14.1797C328.209 11.2767 327.579 8.91602 326.319 7.09766C325.059 5.2793 323.464 4.37012 321.534 4.37012C319.588 4.37012 318.025 5.11979 316.845 6.61914C315.664 8.10254 315.074 10.0645 315.074 12.5049C315.074 14.8815 315.64 16.8434 316.773 18.3906C317.921 19.9219 319.453 20.6875 321.367 20.6875Z" fill="#FEFF00"/>
</svg>
