<svg width="34" height="50" viewBox="0 0 34 50" fill="none" xmlns="http://www.w3.org/2000/svg">
<path d="M27.03 35.2782L8.17003 48.9882C5.75003 50.3782 0.0300293 46.4582 0.0300293 43.6682V19.8482C0.110195 18.3325 0.546805 16.857 1.30438 15.5416C2.06196 14.2263 3.11914 13.1082 4.39003 12.2782L25.03 0.368235C27.44 -1.03176 33.46 1.83823 33.49 4.30823L31.37 27.7182C31.2898 29.2303 30.8552 30.7024 30.1013 32.0156C29.3474 33.3288 28.2953 34.4464 27.03 35.2782Z" fill="#FBEDA7"/>
<path d="M1.27 15.5482C0.48706 16.8499 0.0498811 18.3301 0 19.8482V43.6682C0 46.4582 5.72 50.3782 8.14 48.9882L27.03 35.2782C28.3487 34.4518 29.4306 33.2976 30.17 31.9282C21.22 26.8782 10.69 19.8382 1.27 15.5482Z" fill="#F5D533"/>
<g style="mix-blend-mode:multiply">
<path d="M1.27 15.5482C0.48706 16.8499 0.0498811 18.3301 0 19.8482V43.6682C0 46.4582 5.72 50.3782 8.14 48.9882L27.03 35.2782C28.3487 34.4518 29.4306 33.2976 30.17 31.9282C21.22 26.8782 10.69 19.8382 1.27 15.5482Z" fill="#F9E88F"/>
</g>
<path d="M29.32 36.8282L8.67999 48.7382C6.26999 50.1282 4.31 48.9982 4.31 46.2182V22.3882C4.39364 20.8721 4.83278 19.3969 5.59192 18.0819C6.35106 16.7669 7.40891 15.6489 8.67999 14.8182L29.32 2.90823C31.73 1.51823 33.69 2.64823 33.69 5.42823V29.2582C33.6064 30.7743 33.1672 32.2495 32.4081 33.5646C31.6489 34.8796 30.5911 35.9976 29.32 36.8282Z" fill="#F5D533"/>
<g style="mix-blend-mode:multiply">
<path d="M15.1121 29.3639C14.9943 30.5896 14.6214 31.6987 13.9934 32.6913C13.3697 33.6763 12.5389 34.4671 11.5009 35.0637C10.3757 35.7104 9.47287 35.7655 8.79251 35.2291C8.1165 34.6902 7.7785 33.6437 7.7785 32.0897V31.037C7.7785 30.0193 7.9355 29.0343 8.24952 28.0818C8.5679 27.1268 9.01711 26.2771 9.59717 25.5327C10.1772 24.7832 10.8489 24.1892 11.6121 23.7505C12.6239 23.169 13.4351 23.0287 14.0457 23.3294C14.6563 23.6252 15.0118 24.3183 15.1121 25.4086L13.8495 26.1342C13.7404 25.3246 13.5027 24.8296 13.1364 24.6491C12.7744 24.4661 12.2663 24.5626 11.6121 24.9386C10.8096 25.3998 10.1794 26.1029 9.72147 27.0479C9.26789 27.9903 9.0411 29.0907 9.0411 30.3489V31.4092C9.0411 32.5973 9.25699 33.4181 9.68876 33.8718C10.1205 34.3255 10.7246 34.3293 11.5009 33.8831C12.1987 33.4821 12.733 32.9945 13.1037 32.4206C13.4788 31.839 13.7273 31.062 13.8495 30.0895L15.1121 29.3639ZM19.6391 25.356C18.5619 25.6191 17.7768 25.6342 17.284 25.4011C16.7955 25.1604 16.5513 24.6591 16.5513 23.8972C16.5513 23.0349 16.8501 22.1514 17.4476 21.2465C18.0494 20.3342 18.8301 19.6023 19.7896 19.0508C20.4438 18.6749 21.026 18.4856 21.5363 18.4831C22.0509 18.4781 22.4478 18.651 22.7269 19.002C23.0104 19.3504 23.1522 19.8278 23.1522 20.4344L21.8896 21.1601C21.8896 20.4983 21.7064 20.0848 21.34 19.9193C20.9737 19.7489 20.4569 19.8554 19.7896 20.2389C19.1703 20.5948 18.6862 21.031 18.3373 21.5473C17.9927 22.0561 17.8205 22.5888 17.8205 23.1452C17.8205 23.5914 17.984 23.8759 18.3111 23.9987C18.6426 24.114 19.203 24.0726 19.9924 23.8746C20.7862 23.6741 21.4055 23.6014 21.8503 23.6565C22.2995 23.7042 22.631 23.8721 22.8447 24.1604C23.0628 24.4461 23.1718 24.8672 23.1718 25.4236C23.1718 26.3109 22.8709 27.1957 22.269 28.078C21.6671 28.9553 20.8625 29.6834 19.855 30.2625C19.2008 30.6384 18.5902 30.8465 18.0233 30.8866C17.4563 30.9217 17.018 30.7775 16.7083 30.4542C16.403 30.1284 16.2504 29.6471 16.2504 29.0104L17.513 28.2848C17.513 28.9465 17.7245 29.3488 18.1476 29.4917C18.575 29.6271 19.1441 29.4904 19.855 29.0819C20.5179 28.7009 21.026 28.2535 21.3793 27.7396C21.7326 27.2258 21.9092 26.7007 21.9092 26.1643C21.9092 25.6279 21.7457 25.3083 21.4186 25.2056C21.0915 25.0978 20.4983 25.1479 19.6391 25.356ZM27.5942 20.7841C26.5169 21.0473 25.7319 21.0623 25.2391 20.8292C24.7506 20.5886 24.5064 20.0873 24.5064 19.3253C24.5064 18.4631 24.8051 17.5795 25.4026 16.6747C26.0045 15.7623 26.7852 15.0304 27.7447 14.479C28.3989 14.103 28.9811 13.9137 29.4914 13.9112C30.006 13.9062 30.4029 14.0792 30.682 14.4301C30.9655 14.7785 31.1072 15.256 31.1072 15.8625L29.8446 16.5882C29.8446 15.9265 29.6615 15.5129 29.2951 15.3475C28.9288 15.177 28.4119 15.2835 27.7447 15.667C27.1253 16.023 26.6412 16.4591 26.2923 16.9754C25.9478 17.4843 25.7755 18.0169 25.7755 18.5733C25.7755 19.0195 25.9391 19.304 26.2662 19.4268C26.5976 19.5421 27.1581 19.5007 27.9475 19.3027C28.7412 19.1022 29.3605 19.0295 29.8054 19.0847C30.2546 19.1323 30.5861 19.3002 30.7998 19.5885C31.0178 19.8742 31.1269 20.2953 31.1269 20.8518C31.1269 21.7391 30.8259 22.6239 30.2241 23.5062C29.6222 24.3834 28.8175 25.1116 27.8101 25.6906C27.1559 26.0666 26.5453 26.2746 25.9783 26.3147C25.4113 26.3498 24.973 26.2057 24.6634 25.8823C24.3581 25.5565 24.2054 25.0752 24.2054 24.4386L25.468 23.7129C25.468 24.3747 25.6796 24.777 26.1026 24.9198C26.53 25.0552 27.0992 24.9186 27.8101 24.51C28.473 24.129 28.9811 23.6816 29.3344 23.1678C29.6876 22.6539 29.8643 22.1288 29.8643 21.5924C29.8643 21.056 29.7007 20.7365 29.3736 20.6337C29.0465 20.5259 28.4534 20.576 27.5942 20.7841Z" fill="#79829D"/>
</g>
</svg>
