<svg width="473" height="473" viewBox="0 0 473 473" fill="none" xmlns="http://www.w3.org/2000/svg">
<path d="M466.276 240.597C465.121 239.442 465.121 237.567 466.278 236.41C467.433 235.255 469.307 235.255 470.463 236.41C471.619 237.567 471.619 239.442 470.464 240.597C469.307 241.754 467.433 241.754 466.276 240.597Z" fill="#FEFF00"/>
<path d="M437.543 269.33C436.388 268.175 436.388 266.3 437.545 265.143C438.7 263.988 440.575 263.988 441.73 265.143C442.886 266.3 442.886 268.175 441.731 269.33C440.575 270.487 438.7 270.487 437.543 269.33Z" fill="#FEFF00"/>
<path d="M408.81 298.063C407.655 296.908 407.655 295.033 408.811 293.877C409.967 292.721 411.841 292.721 412.997 293.877C414.153 295.033 414.153 296.908 412.998 298.063C411.841 299.22 409.967 299.22 408.81 298.063Z" fill="#FEFF00"/>
<path d="M380.077 326.796C378.921 325.641 378.921 323.767 380.078 322.61C381.233 321.455 383.108 321.455 384.263 322.61C385.42 323.767 385.42 325.641 384.265 326.796C383.108 327.953 381.233 327.953 380.077 326.796Z" fill="#FEFF00"/>
<path d="M351.344 355.53C350.188 354.374 350.188 352.5 351.345 351.343C352.5 350.188 354.375 350.188 355.53 351.343C356.687 352.5 356.687 354.374 355.532 355.53C354.375 356.686 352.5 356.686 351.344 355.53Z" fill="#FEFF00"/>
<path d="M322.61 384.263C321.455 383.108 321.456 381.232 322.611 380.077C323.768 378.92 325.643 378.92 326.798 380.075C327.955 381.232 327.955 383.106 326.798 384.263C325.643 385.418 323.767 385.42 322.61 384.263Z" fill="#FEFF00"/>
<path d="M293.877 412.996C292.721 411.841 292.721 409.967 293.878 408.81C295.035 407.653 296.909 407.653 298.065 408.808C299.221 409.965 299.221 411.84 298.065 412.996C296.908 414.153 295.033 414.153 293.877 412.996Z" fill="#FEFF00"/>
<path d="M265.143 441.73C263.988 440.574 263.988 438.7 265.145 437.543C266.302 436.386 268.176 436.386 269.332 437.541C270.488 438.698 270.488 440.573 269.332 441.73C268.175 442.886 266.3 442.886 265.143 441.73Z" fill="#FEFF00"/>
<path d="M236.41 470.463C235.255 469.307 235.255 467.433 236.412 466.276C237.569 465.119 239.443 465.119 240.598 466.275C241.755 467.431 241.755 469.306 240.598 470.463C239.442 471.619 237.567 471.619 236.41 470.463Z" fill="#FEFF00"/>
<path d="M444.975 219.296C443.818 218.139 443.818 216.265 444.975 215.108C446.13 213.953 448.005 213.953 449.162 215.109C450.317 216.265 450.317 218.139 449.162 219.295C448.005 220.451 446.13 220.451 444.975 219.296Z" fill="#FEFF00"/>
<path d="M416.242 248.029C415.085 246.872 415.085 244.998 416.242 243.841C417.397 242.686 419.272 242.686 420.429 243.842C421.584 244.998 421.584 246.872 420.429 248.028C419.272 249.184 417.397 249.184 416.242 248.029Z" fill="#FEFF00"/>
<path d="M387.509 276.762C386.352 275.605 386.352 273.731 387.509 272.574C388.664 271.419 390.539 271.419 391.696 272.576C392.851 273.731 392.851 275.605 391.696 276.761C390.539 277.917 388.664 277.917 387.509 276.762Z" fill="#FEFF00"/>
<path d="M358.776 305.495C357.619 304.339 357.619 302.464 358.776 301.307C359.931 300.152 361.806 300.152 362.962 301.309C364.118 302.464 364.118 304.339 362.962 305.494C361.806 306.651 359.931 306.651 358.776 305.495Z" fill="#FEFF00"/>
<path d="M330.043 334.229C328.886 333.072 328.886 331.197 330.043 330.04C331.198 328.885 333.072 328.885 334.229 330.042C335.384 331.197 335.384 333.072 334.229 334.227C333.072 335.384 331.198 335.384 330.043 334.229Z" fill="#FEFF00"/>
<path d="M301.309 362.962C300.152 361.806 300.154 359.929 301.309 358.774C302.466 357.617 304.34 357.617 305.497 358.774C306.652 359.929 306.652 361.804 305.496 362.961C304.34 364.116 302.464 364.117 301.309 362.962Z" fill="#FEFF00"/>
<path d="M272.576 391.696C271.419 390.539 271.419 388.664 272.576 387.507C273.732 386.351 275.607 386.351 276.764 387.507C277.919 388.663 277.919 390.537 276.762 391.694C275.606 392.851 273.731 392.851 272.576 391.696Z" fill="#FEFF00"/>
<path d="M243.842 420.429C242.686 419.272 242.686 417.397 243.842 416.241C244.999 415.084 246.874 415.084 248.031 416.241C249.186 417.396 249.186 419.27 248.029 420.427C246.872 421.584 244.998 421.584 243.842 420.429Z" fill="#FEFF00"/>
<path d="M215.109 449.162C213.953 448.005 213.953 446.13 215.109 444.974C216.266 443.817 218.141 443.817 219.298 444.974C220.453 446.129 220.453 448.004 219.296 449.16C218.139 450.317 216.265 450.317 215.109 449.162Z" fill="#FEFF00"/>
<path d="M423.674 197.994C422.517 196.838 422.517 194.963 423.674 193.806C424.829 192.651 426.703 192.651 427.86 193.808C429.015 194.963 429.015 196.838 427.86 197.993C426.703 199.15 424.829 199.15 423.674 197.994Z" fill="#FEFF00"/>
<path d="M394.94 226.727C393.784 225.571 393.784 223.696 394.94 222.539C396.096 221.384 397.97 221.384 399.127 222.541C400.282 223.696 400.282 225.571 399.127 226.726C397.97 227.883 396.096 227.883 394.94 226.727Z" fill="#FEFF00"/>
<path d="M366.207 255.461C365.051 254.304 365.051 252.429 366.207 251.272C367.363 250.117 369.237 250.117 370.394 251.274C371.549 252.429 371.549 254.304 370.394 255.459C369.237 256.616 367.363 256.616 366.207 255.461Z" fill="#FEFF00"/>
<path d="M337.474 284.194C336.317 283.037 336.317 281.162 337.474 280.006C338.629 278.85 340.504 278.85 341.661 280.007C342.816 281.162 342.816 283.037 341.661 284.192C340.504 285.349 338.629 285.349 337.474 284.194Z" fill="#FEFF00"/>
<path d="M308.741 312.927C307.584 311.77 307.584 309.896 308.741 308.739C309.896 307.584 311.771 307.584 312.928 308.74C314.083 309.896 314.083 311.77 312.928 312.925C311.771 314.082 309.896 314.082 308.741 312.927Z" fill="#FEFF00"/>
<path d="M280.007 341.661C278.851 340.504 278.852 338.628 280.007 337.473C281.164 336.316 283.039 336.316 284.195 337.473C285.351 338.628 285.351 340.502 284.194 341.659C283.039 342.814 281.163 342.816 280.007 341.661Z" fill="#FEFF00"/>
<path d="M251.274 370.394C250.117 369.237 250.117 367.363 251.274 366.206C252.431 365.049 254.305 365.049 255.462 366.206C256.617 367.361 256.617 369.236 255.461 370.392C254.304 371.549 252.429 371.549 251.274 370.394Z" fill="#FEFF00"/>
<path d="M222.541 399.127C221.384 397.97 221.384 396.096 222.541 394.939C223.698 393.782 225.572 393.782 226.729 394.939C227.884 396.094 227.884 397.969 226.727 399.126C225.571 400.282 223.696 400.282 222.541 399.127Z" fill="#FEFF00"/>
<path d="M193.808 427.86C192.651 426.703 192.651 424.829 193.808 423.672C194.965 422.515 196.839 422.515 197.996 423.672C199.151 424.827 199.151 426.702 197.994 427.859C196.838 429.015 194.963 429.015 193.808 427.86Z" fill="#FEFF00"/>
<path d="M402.372 176.693C401.215 175.536 401.215 173.661 402.372 172.505C403.527 171.349 405.402 171.349 406.558 172.506C407.714 173.661 407.715 175.537 406.56 176.693C405.403 177.849 403.527 177.848 402.372 176.693Z" fill="#FEFF00"/>
<path d="M373.639 205.426C372.482 204.269 372.482 202.394 373.639 201.238C374.794 200.082 376.669 200.082 377.825 201.239C378.981 202.394 378.982 204.27 377.827 205.426C376.67 206.582 374.794 206.581 373.639 205.426Z" fill="#FEFF00"/>
<path d="M344.906 234.159C343.749 233.002 343.749 231.127 344.906 229.971C346.061 228.815 347.935 228.815 349.092 229.972C350.247 231.127 350.249 233.004 349.094 234.159C347.937 235.316 346.061 235.314 344.906 234.159Z" fill="#FEFF00"/>
<path d="M316.172 262.892C315.016 261.735 315.016 259.861 316.172 258.704C317.328 257.549 319.202 257.549 320.359 258.705C321.514 259.861 321.516 261.737 320.36 262.892C319.204 264.049 317.328 264.047 316.172 262.892Z" fill="#FEFF00"/>
<path d="M287.439 291.625C286.282 290.468 286.282 288.594 287.439 287.437C288.594 286.282 290.469 286.282 291.626 287.439C292.781 288.594 292.783 290.47 291.627 291.625C290.471 292.782 288.594 292.78 287.439 291.625Z" fill="#FEFF00"/>
<path d="M258.706 320.359C257.549 319.202 257.55 317.326 258.706 316.171C259.862 315.014 261.737 315.014 262.894 316.171C264.049 317.326 264.05 319.202 262.894 320.359C261.738 321.514 259.861 321.514 258.706 320.359Z" fill="#FEFF00"/>
<path d="M229.972 349.092C228.816 347.935 228.816 346.061 229.972 344.904C231.129 343.747 233.004 343.747 234.16 344.904C235.316 346.059 235.317 347.935 234.16 349.092C233.004 350.249 231.127 350.247 229.972 349.092Z" fill="#FEFF00"/>
<path d="M201.239 377.825C200.082 376.669 200.082 374.794 201.239 373.637C202.396 372.48 204.271 372.48 205.427 373.637C206.583 374.792 206.584 376.669 205.427 377.825C204.271 378.982 202.394 378.981 201.239 377.825Z" fill="#FEFF00"/>
<path d="M172.506 406.558C171.349 405.402 171.349 403.527 172.506 402.37C173.663 401.214 175.537 401.214 176.694 402.37C177.849 403.526 177.851 405.402 176.694 406.558C175.537 407.715 173.661 407.714 172.506 406.558Z" fill="#FEFF00"/>
<path d="M381.07 155.391C379.915 154.236 379.913 152.36 381.07 151.203C382.225 150.048 384.101 150.049 385.257 151.204C386.413 152.361 386.413 154.236 385.258 155.391C384.101 156.548 382.227 156.548 381.07 155.391Z" fill="#FEFF00"/>
<path d="M352.337 184.124C351.182 182.969 351.18 181.093 352.337 179.936C353.492 178.781 355.368 178.782 356.524 179.937C357.68 181.094 357.68 182.969 356.525 184.124C355.368 185.281 353.494 185.281 352.337 184.124Z" fill="#FEFF00"/>
<path d="M323.604 212.857C322.449 211.702 322.447 209.826 323.604 208.669C324.759 207.514 326.635 207.515 327.79 208.671C328.947 209.827 328.947 211.702 327.792 212.857C326.635 214.014 324.761 214.014 323.604 212.857Z" fill="#FEFF00"/>
<path d="M294.871 241.59C293.715 240.435 293.714 238.559 294.871 237.402C296.026 236.247 297.902 236.249 299.057 237.404C300.214 238.561 300.214 240.435 299.059 241.59C297.902 242.747 296.027 242.747 294.871 241.59Z" fill="#FEFF00"/>
<path d="M266.138 270.324C264.982 269.168 264.981 267.292 266.138 266.135C267.293 264.98 269.169 264.982 270.324 266.137C271.481 267.294 271.481 269.168 270.326 270.324C269.169 271.48 267.294 271.48 266.138 270.324Z" fill="#FEFF00"/>
<path d="M237.404 299.057C236.249 297.902 236.249 296.024 237.404 294.869C238.561 293.712 240.437 293.714 241.592 294.869C242.749 296.026 242.749 297.9 241.592 299.057C240.437 300.212 238.561 300.214 237.404 299.057Z" fill="#FEFF00"/>
<path d="M208.671 327.79C207.515 326.635 207.514 324.759 208.671 323.602C209.827 322.446 211.703 322.447 212.859 323.602C214.015 324.759 214.015 326.634 212.859 327.79C211.702 328.947 209.827 328.947 208.671 327.79Z" fill="#FEFF00"/>
<path d="M179.937 356.524C178.782 355.368 178.781 353.492 179.937 352.335C181.094 351.179 182.97 351.18 184.126 352.335C185.282 353.492 185.282 355.367 184.126 356.524C182.969 357.68 181.094 357.68 179.937 356.524Z" fill="#FEFF00"/>
<path d="M151.204 385.257C150.049 384.101 150.048 382.225 151.204 381.069C152.361 379.912 154.237 379.913 155.392 381.069C156.549 382.225 156.549 384.1 155.392 385.257C154.236 386.413 152.361 386.413 151.204 385.257Z" fill="#FEFF00"/>
<path d="M359.768 134.089C358.613 132.934 358.613 131.059 359.77 129.903C360.925 128.747 362.8 128.747 363.955 129.903C365.112 131.059 365.112 132.934 363.956 134.089C362.8 135.246 360.925 135.246 359.768 134.089Z" fill="#FEFF00"/>
<path d="M331.035 162.822C329.88 161.667 329.88 159.792 331.037 158.636C332.192 157.48 334.067 157.48 335.222 158.636C336.379 159.792 336.379 161.667 335.223 162.822C334.067 163.979 332.192 163.979 331.035 162.822Z" fill="#FEFF00"/>
<path d="M302.302 191.555C301.147 190.4 301.147 188.526 302.304 187.369C303.459 186.214 305.334 186.214 306.489 187.369C307.646 188.526 307.646 190.4 306.49 191.555C305.334 192.712 303.459 192.712 302.302 191.555Z" fill="#FEFF00"/>
<path d="M273.569 220.289C272.414 219.133 272.414 217.259 273.57 216.102C274.726 214.947 276.6 214.947 277.756 216.102C278.912 217.259 278.912 219.133 277.757 220.289C276.6 221.445 274.726 221.445 273.569 220.289Z" fill="#FEFF00"/>
<path d="M244.836 249.022C243.681 247.867 243.681 245.992 244.837 244.835C245.992 243.68 247.867 243.68 249.022 244.835C250.179 245.992 250.179 247.867 249.024 249.022C247.867 250.179 245.992 250.179 244.836 249.022Z" fill="#FEFF00"/>
<path d="M216.102 277.755C214.947 276.6 214.948 274.724 216.104 273.569C217.26 272.412 219.135 272.412 220.29 273.567C221.447 274.724 221.447 276.599 220.29 277.755C219.135 278.911 217.259 278.912 216.102 277.755Z" fill="#FEFF00"/>
<path d="M187.369 306.489C186.214 305.334 186.214 303.459 187.37 302.302C188.527 301.145 190.402 301.145 191.557 302.301C192.714 303.457 192.714 305.332 191.557 306.489C190.4 307.645 188.526 307.645 187.369 306.489Z" fill="#FEFF00"/>
<path d="M158.636 335.222C157.481 334.067 157.481 332.192 158.637 331.035C159.794 329.879 161.669 329.879 162.824 331.034C163.981 332.19 163.981 334.065 162.824 335.222C161.667 336.379 159.793 336.379 158.636 335.222Z" fill="#FEFF00"/>
<path d="M129.903 363.955C128.747 362.8 128.747 360.925 129.904 359.768C131.061 358.612 132.935 358.612 134.091 359.767C135.247 360.924 135.247 362.798 134.091 363.955C132.934 365.112 131.059 365.112 129.903 363.955Z" fill="#FEFF00"/>
<path d="M338.467 112.788C337.312 111.632 337.312 109.758 338.468 108.601C339.623 107.446 341.498 107.446 342.653 108.601C343.81 109.758 343.81 111.632 342.655 112.788C341.498 113.944 339.623 113.944 338.467 112.788Z" fill="#FEFF00"/>
<path d="M309.734 141.521C308.578 140.365 308.578 138.491 309.735 137.334C310.89 136.179 312.765 136.179 313.92 137.334C315.077 138.491 315.077 140.365 313.922 141.521C312.765 142.677 310.89 142.677 309.734 141.521Z" fill="#FEFF00"/>
<path d="M281.001 170.254C279.845 169.099 279.845 167.224 281.002 166.067C282.157 164.912 284.032 164.912 285.187 166.067C286.344 167.224 286.344 169.099 285.189 170.254C284.032 171.411 282.157 171.411 281.001 170.254Z" fill="#FEFF00"/>
<path d="M252.267 198.987C251.112 197.832 251.112 195.957 252.269 194.8C253.424 193.645 255.299 193.645 256.454 194.8C257.611 195.957 257.611 197.832 256.455 198.987C255.299 200.144 253.424 200.144 252.267 198.987Z" fill="#FEFF00"/>
<path d="M223.534 227.72C222.379 226.565 222.379 224.69 223.536 223.534C224.691 222.378 226.566 222.378 227.721 223.534C228.878 224.69 228.878 226.565 227.722 227.72C226.566 228.877 224.691 228.877 223.534 227.72Z" fill="#FEFF00"/>
<path d="M194.801 256.454C193.645 255.299 193.647 253.423 194.802 252.267C195.959 251.111 197.833 251.111 198.989 252.266C200.145 253.423 200.145 255.297 198.989 256.454C197.833 257.609 195.957 257.611 194.801 256.454Z" fill="#FEFF00"/>
<path d="M166.067 285.187C164.912 284.032 164.912 282.157 166.069 281.001C167.226 279.844 169.1 279.844 170.255 280.999C171.412 282.156 171.412 284.03 170.255 285.187C169.099 286.344 167.224 286.344 166.067 285.187Z" fill="#FEFF00"/>
<path d="M137.334 313.92C136.179 312.765 136.179 310.89 137.336 309.734C138.492 308.577 140.367 308.577 141.522 309.732C142.679 310.889 142.679 312.764 141.522 313.92C140.366 315.077 138.491 315.077 137.334 313.92Z" fill="#FEFF00"/>
<path d="M108.601 342.653C107.446 341.498 107.446 339.623 108.602 338.467C109.759 337.31 111.634 337.31 112.789 338.465C113.946 339.622 113.946 341.497 112.789 342.653C111.632 343.81 109.758 343.81 108.601 342.653Z" fill="#FEFF00"/>
<path d="M317.166 91.4867C316.009 90.3299 316.009 88.4553 317.166 87.2986C318.321 86.1433 320.196 86.1433 321.352 87.3C322.508 88.4553 322.509 90.3314 321.354 91.4867C320.197 92.6434 318.321 92.6419 317.166 91.4867Z" fill="#FEFF00"/>
<path d="M288.433 120.22C287.276 119.063 287.276 117.188 288.433 116.032C289.588 114.876 291.463 114.876 292.619 116.033C293.775 117.188 293.776 119.064 292.621 120.22C291.464 121.376 289.588 121.375 288.433 120.22Z" fill="#FEFF00"/>
<path d="M259.7 148.953C258.543 147.796 258.543 145.921 259.7 144.765C260.855 143.609 262.729 143.609 263.886 144.766C265.041 145.921 265.043 147.798 263.888 148.953C262.731 150.11 260.855 150.108 259.7 148.953Z" fill="#FEFF00"/>
<path d="M230.966 177.686C229.81 176.529 229.81 174.655 230.966 173.498C232.122 172.343 233.996 172.343 235.153 173.499C236.308 174.655 236.31 176.531 235.154 177.686C233.998 178.843 232.122 178.841 230.966 177.686Z" fill="#FEFF00"/>
<path d="M202.233 206.419C201.076 205.262 201.076 203.388 202.233 202.231C203.388 201.076 205.263 201.076 206.42 202.233C207.575 203.388 207.576 205.264 206.421 206.419C205.265 207.576 203.388 207.574 202.233 206.419Z" fill="#FEFF00"/>
<path d="M173.499 235.153C172.343 233.996 172.344 232.12 173.499 230.965C174.656 229.808 176.531 229.808 177.688 230.965C178.843 232.12 178.844 233.996 177.688 235.153C176.532 236.308 174.655 236.308 173.499 235.153Z" fill="#FEFF00"/>
<path d="M144.766 263.886C143.61 262.729 143.61 260.855 144.766 259.698C145.923 258.541 147.798 258.541 148.954 259.698C150.11 260.853 150.111 262.729 148.954 263.886C147.798 265.043 145.922 265.041 144.766 263.886Z" fill="#FEFF00"/>
<path d="M116.033 292.619C114.876 291.463 114.876 289.588 116.033 288.431C117.19 287.274 119.065 287.274 120.221 288.431C121.376 289.586 121.378 291.463 120.221 292.619C119.065 293.776 117.188 293.774 116.033 292.619Z" fill="#FEFF00"/>
<path d="M87.3 321.352C86.1433 320.196 86.1433 318.321 87.3 317.164C88.4567 316.008 90.3314 316.008 91.4881 317.164C92.6433 318.319 92.6448 320.196 91.4881 321.352C90.3314 322.509 88.4552 322.508 87.3 321.352Z" fill="#FEFF00"/>
<path d="M295.864 70.185C294.707 69.0282 294.707 67.1536 295.864 65.9969C297.019 64.8416 298.894 64.8416 300.051 65.9984C301.207 67.1551 301.207 69.0297 300.052 70.185C298.895 71.3417 297.021 71.3417 295.864 70.185Z" fill="#FEFF00"/>
<path d="M267.131 98.918C265.974 97.7612 265.974 95.8866 267.131 94.7299C268.286 93.5746 270.161 93.5746 271.318 94.7314C272.474 95.8881 272.474 97.7627 271.319 98.918C270.162 100.075 268.288 100.075 267.131 98.918Z" fill="#FEFF00"/>
<path d="M94.7314 271.318C93.5747 270.161 93.5747 268.286 94.7314 267.129C95.8881 265.973 97.7628 265.973 98.9195 267.129C100.076 268.286 100.076 270.161 98.9195 271.318C97.7628 272.474 95.8881 272.474 94.7314 271.318Z" fill="#FEFF00"/>
<path d="M65.9984 300.051C64.8416 298.894 64.8416 297.019 65.9984 295.863C67.1551 294.706 69.0297 294.706 70.1865 295.863C71.3432 297.019 71.3432 298.894 70.1865 300.051C69.0297 301.207 67.1551 301.207 65.9984 300.051Z" fill="#FEFF00"/>
<path d="M274.562 48.8832C273.407 47.728 273.407 45.8534 274.564 44.6966C275.719 43.5414 277.594 43.5414 278.749 44.6966C279.906 45.8534 279.906 47.728 278.75 48.8832C277.594 50.04 275.719 50.04 274.562 48.8832Z" fill="#FEFF00"/>
<path d="M245.829 77.6162C244.674 76.461 244.674 74.5864 245.831 73.4296C246.986 72.2744 248.861 72.2744 250.016 73.4296C251.173 74.5864 251.173 76.461 250.017 77.6162C248.861 78.773 246.986 78.773 245.829 77.6162Z" fill="#FEFF00"/>
<path d="M217.096 106.349C215.941 105.194 215.941 103.319 217.098 102.163C218.253 101.008 220.128 101.008 221.283 102.163C222.439 103.319 222.439 105.194 221.284 106.349C220.128 107.506 218.253 107.506 217.096 106.349Z" fill="#FEFF00"/>
<path d="M188.363 135.083C187.208 133.927 187.208 132.053 188.364 130.896C189.52 129.741 191.394 129.741 192.549 130.896C193.706 132.053 193.706 133.927 192.551 135.083C191.394 136.239 189.52 136.239 188.363 135.083Z" fill="#FEFF00"/>
<path d="M159.63 163.816C158.474 162.661 158.474 160.786 159.631 159.629C160.786 158.474 162.661 158.474 163.816 159.629C164.973 160.786 164.973 162.661 163.818 163.816C162.661 164.972 160.786 164.972 159.63 163.816Z" fill="#FEFF00"/>
<path d="M130.896 192.549C129.741 191.394 129.742 189.518 130.898 188.363C132.054 187.206 133.929 187.206 135.084 188.361C136.241 189.518 136.241 191.393 135.084 192.549C133.929 193.705 132.053 193.706 130.896 192.549Z" fill="#FEFF00"/>
<path d="M102.163 221.283C101.008 220.127 101.008 218.253 102.164 217.096C103.321 215.939 105.196 215.939 106.351 217.095C107.508 218.251 107.508 220.126 106.351 221.283C105.194 222.439 103.319 222.439 102.163 221.283Z" fill="#FEFF00"/>
<path d="M73.4297 250.016C72.2745 248.861 72.2745 246.986 73.4312 245.829C74.5879 244.672 76.4626 244.672 77.6178 245.828C78.7746 246.984 78.7746 248.859 77.6178 250.016C76.4611 251.173 74.5865 251.173 73.4297 250.016Z" fill="#FEFF00"/>
<path d="M44.6966 278.749C43.5413 277.594 43.5413 275.719 44.6981 274.562C45.8548 273.406 47.7294 273.406 48.8847 274.561C50.0414 275.718 50.0414 277.592 48.8847 278.749C47.7279 279.906 45.8533 279.906 44.6966 278.749Z" fill="#FEFF00"/>
<path d="M253.261 27.5816C252.105 26.4264 252.105 24.5518 253.262 23.395C254.417 22.2398 256.292 22.2398 257.447 23.395C258.604 24.5518 258.604 26.4264 257.449 27.5816C256.292 28.7384 254.417 28.7384 253.261 27.5816Z" fill="#FEFF00"/>
<path d="M224.528 56.3146C223.372 55.1594 223.372 53.2848 224.529 52.128C225.684 50.9728 227.559 50.9728 228.714 52.128C229.871 53.2848 229.871 55.1594 228.716 56.3146C227.559 57.4714 225.684 57.4714 224.528 56.3146Z" fill="#FEFF00"/>
<path d="M195.794 85.0478C194.639 83.8925 194.639 82.0179 195.796 80.8611C196.951 79.7059 198.826 79.7059 199.981 80.8611C201.138 82.0179 201.138 83.8925 199.983 85.0478C198.826 86.2045 196.951 86.2045 195.794 85.0478Z" fill="#FEFF00"/>
<path d="M167.061 113.781C165.906 112.626 165.906 110.751 167.063 109.594C168.218 108.439 170.093 108.439 171.248 109.594C172.405 110.751 172.405 112.626 171.249 113.781C170.093 114.938 168.218 114.938 167.061 113.781Z" fill="#FEFF00"/>
<path d="M138.328 142.514C137.173 141.359 137.173 139.484 138.33 138.328C139.485 137.172 141.36 137.172 142.515 138.328C143.672 139.484 143.672 141.359 142.516 142.514C141.36 143.671 139.485 143.671 138.328 142.514Z" fill="#FEFF00"/>
<path d="M109.595 171.248C108.439 170.093 108.441 168.216 109.596 167.061C110.753 165.904 112.627 165.904 113.783 167.06C114.939 168.216 114.939 170.091 113.783 171.248C112.627 172.403 110.751 172.405 109.595 171.248Z" fill="#FEFF00"/>
<path d="M80.8612 199.981C79.706 198.826 79.706 196.951 80.8627 195.794C82.0195 194.638 83.8941 194.638 85.0493 195.793C86.2061 196.95 86.2061 198.824 85.0493 199.981C83.8926 201.138 82.018 201.138 80.8612 199.981Z" fill="#FEFF00"/>
<path d="M52.1281 228.714C50.9728 227.559 50.9728 225.684 52.1296 224.528C53.2863 223.371 55.161 223.371 56.3162 224.526C57.4729 225.683 57.4729 227.558 56.3162 228.714C55.1595 229.871 53.2848 229.871 52.1281 228.714Z" fill="#FEFF00"/>
<path d="M23.3949 257.447C22.2397 256.292 22.2397 254.417 23.3964 253.261C24.5532 252.104 26.4278 252.104 27.583 253.259C28.7398 254.416 28.7398 256.291 27.583 257.447C26.4263 258.604 24.5517 258.604 23.3949 257.447Z" fill="#FEFF00"/>
<path d="M231.96 6.28067C230.803 5.12394 230.803 3.24929 231.96 2.09256C233.115 0.937324 234.99 0.937324 236.146 2.09405C237.302 3.24929 237.302 5.12394 236.146 6.27918C234.99 7.43591 233.115 7.43591 231.96 6.28067Z" fill="#FEFF00"/>
<path d="M203.227 35.0137C202.07 33.8569 202.07 31.9823 203.227 30.8256C204.382 29.6703 206.257 29.6703 207.413 30.8271C208.569 31.9823 208.569 33.8569 207.413 35.0122C206.257 36.1689 204.382 36.1689 203.227 35.0137Z" fill="#FEFF00"/>
<path d="M174.494 63.7468C173.337 62.5901 173.337 60.7154 174.494 59.5587C175.649 58.4034 177.524 58.4034 178.68 59.5602C179.835 60.7154 179.835 62.5901 178.68 63.7453C177.524 64.902 175.649 64.902 174.494 63.7468Z" fill="#FEFF00"/>
<path d="M145.76 92.48C144.604 91.3233 144.604 89.4487 145.76 88.2919C146.916 87.1367 148.79 87.1367 149.947 88.2934C151.102 89.4487 151.102 91.3233 149.947 92.4785C148.79 93.6353 146.916 93.6353 145.76 92.48Z" fill="#FEFF00"/>
<path d="M117.027 121.213C115.87 120.056 115.87 118.182 117.027 117.025C118.182 115.87 120.057 115.87 121.214 117.027C122.369 118.182 122.369 120.056 121.214 121.212C120.057 122.368 118.182 122.368 117.027 121.213Z" fill="#FEFF00"/>
<path d="M88.2935 149.947C87.1368 148.79 87.1383 146.914 88.2935 145.759C89.4502 144.602 91.3249 144.602 92.4816 145.759C93.6369 146.914 93.6369 148.789 92.4801 149.945C91.3249 151.101 89.4488 151.102 88.2935 149.947Z" fill="#FEFF00"/>
<path d="M59.5602 178.68C58.4035 177.523 58.4035 175.649 59.5602 174.492C60.717 173.335 62.5916 173.335 63.7484 174.492C64.9036 175.647 64.9036 177.522 63.7469 178.679C62.5901 179.835 60.7155 179.835 59.5602 178.68Z" fill="#FEFF00"/>
<path d="M30.8271 207.413C29.6704 206.257 29.6704 204.382 30.8271 203.225C31.9838 202.068 33.8585 202.068 35.0152 203.225C36.1704 204.38 36.1704 206.255 35.0137 207.412C33.857 208.568 31.9823 208.568 30.8271 207.413Z" fill="#FEFF00"/>
<path d="M2.09393 236.146C0.937205 234.99 0.937205 233.115 2.09393 231.958C3.25066 230.802 5.12531 230.802 6.28204 231.958C7.43728 233.113 7.43728 234.988 6.28055 236.145C5.12382 237.302 3.24917 237.302 2.09393 236.146Z" fill="#FEFF00"/>
</svg>
