<svg width="35" height="50" viewBox="0 0 35 50" fill="none" xmlns="http://www.w3.org/2000/svg">
<path d="M28 35.66L9.14 49.37C6.72 50.76 1 46.84 1 44.05V20.23C1.08017 18.7142 1.51678 17.2387 2.27435 15.9234C3.03193 14.6081 4.08911 13.49 5.36 12.66L26 0.75001C28.41 -0.64999 34.43 2.22001 34.46 4.69001L32.34 28.1C32.2597 29.6121 31.8251 31.0842 31.0713 32.3974C30.3174 33.7106 29.2653 34.8282 28 35.66Z" fill="#FBEDA7"/>
<path d="M2.23997 15.93C1.45703 17.2317 1.01985 18.7119 0.969971 20.23V44.05C0.969971 46.84 6.68997 50.76 9.10997 49.37L28 35.66C29.3187 34.8336 30.4006 33.6794 31.14 32.31C22.19 27.26 11.66 20.22 2.23997 15.93Z" fill="#F5D533"/>
<g style="mix-blend-mode:multiply">
<path d="M2.23997 15.93C1.45703 17.2317 1.01985 18.7119 0.969971 20.23V44.05C0.969971 46.84 6.68997 50.76 9.10997 49.37L28 35.66C29.3187 34.8336 30.4006 33.6794 31.14 32.31C22.19 27.26 11.66 20.22 2.23997 15.93Z" fill="#F9E88F"/>
</g>
<path d="M30.29 37.21L9.64996 49.12C7.23996 50.51 5.27997 49.38 5.27997 46.6V22.77C5.36361 21.2539 5.80275 19.7787 6.56189 18.4637C7.32103 17.1486 8.37888 16.0306 9.64996 15.2L30.29 3.29001C32.7 1.90001 34.66 3.03001 34.66 5.81001V29.64C34.5763 31.1561 34.1372 32.6313 33.3781 33.9463C32.6189 35.2614 31.5611 36.3794 30.29 37.21Z" fill="#F5D533"/>
<g style="mix-blend-mode:multiply">
<path d="M17.4162 20.2627L18.6788 19.5371V27.2897C18.6788 28.3374 18.4041 29.315 17.8545 30.2223C17.3094 31.1272 16.581 31.8415 15.6695 32.3654C14.7231 32.9093 13.986 33.0547 13.4583 32.8015C12.9306 32.5484 12.6667 31.9205 12.6667 30.9179L13.9228 30.196C13.9228 30.8226 14.0711 31.2262 14.3677 31.4066C14.6686 31.5846 15.1025 31.5107 15.6695 31.1848C16.1885 30.8865 16.6072 30.4579 16.9256 29.899C17.2483 29.3375 17.4119 28.7172 17.4162 28.0379V20.2627ZM23.6246 22.7629C22.5473 23.0261 21.7623 23.0412 21.2695 22.8081C20.781 22.5674 20.5367 22.0661 20.5367 21.3042C20.5367 20.4419 20.8355 19.5584 21.433 18.6535C22.0349 17.7412 22.8155 17.0093 23.775 16.4578C24.4292 16.0818 25.0115 15.8926 25.5217 15.8901C26.0364 15.8851 26.4333 16.058 26.7124 16.4089C26.9959 16.7573 27.1376 17.2348 27.1376 17.8414L25.875 18.5671C25.875 17.9053 25.6918 17.4918 25.3255 17.3263C24.9591 17.1559 24.4423 17.2624 23.775 17.6459C23.1557 18.0018 22.6716 18.438 22.3227 18.9543C21.9782 19.4631 21.8059 19.9958 21.8059 20.5522C21.8059 20.9984 21.9694 21.2829 22.2965 21.4057C22.628 21.521 23.1884 21.4796 23.9778 21.2816C24.7716 21.0811 25.3909 21.0084 25.8358 21.0635C26.285 21.1112 26.6164 21.2791 26.8301 21.5673C27.0482 21.8531 27.1572 22.2742 27.1572 22.8306C27.1572 23.7179 26.8563 24.6027 26.2545 25.485C25.6526 26.3623 24.8479 27.0904 23.8405 27.6694C23.1863 28.0454 22.5757 28.2535 22.0087 28.2936C21.4417 28.3287 21.0034 28.1845 20.6938 27.8612C20.3885 27.5353 20.2358 27.0541 20.2358 26.4174L21.4984 25.6918C21.4984 26.3535 21.7099 26.7558 22.133 26.8987C22.5604 27.034 23.1296 26.8974 23.8405 26.4889C24.5034 26.1079 25.0115 25.6605 25.3647 25.1466C25.718 24.6328 25.8946 24.1077 25.8946 23.5713C25.8946 23.0349 25.7311 22.7153 25.404 22.6126C25.0769 22.5048 24.4838 22.5549 23.6246 22.7629Z" fill="#79829D"/>
</g>
</svg>
