<svg width="73" height="94" viewBox="0 0 73 94" fill="none" xmlns="http://www.w3.org/2000/svg">
<g opacity="0.8">
<path opacity="0.8" d="M71.36 51.87L1.35999 93.18L0.519989 92.76V41.64L71.36 0.75L72.18 1.17L71.36 51.87Z" fill="#75C1F8"/>
<path opacity="0.8" d="M72.2 52.28L1.35999 93.18V42.06L72.2 1.16V52.28Z" fill="white"/>
<path opacity="0.8" d="M72.2 6.09L1.35999 46.99V42.06L72.2 1.16V6.09Z" fill="#3FA9F5"/>
<path opacity="0.8" d="M35.42 35.31L7.84 51.24V50.14L35.42 34.21V35.31Z" fill="#898E9B"/>
<path opacity="0.8" d="M35.42 40.06L7.84 55.98V54.88L35.42 38.96V40.06Z" fill="#898E9B"/>
<path opacity="0.8" d="M35.42 44.8L7.84 60.72V59.62L35.42 43.7V44.8Z" fill="#898E9B"/>
<path opacity="0.8" d="M35.42 49.54L7.84 65.47V64.37L35.42 48.44V49.54Z" fill="#898E9B"/>
<path opacity="0.8" d="M35.42 54.28L7.84 70.21V69.11L35.42 53.18V54.28Z" fill="#898E9B"/>
<path opacity="0.8" d="M66.05 47.71L42.9 61.07L42.89 28.65L66.05 15.28V47.71Z" fill="#A9D8FA"/>
<path opacity="0.8" d="M35.42 59.03L7.84 74.95V73.85L35.42 57.93V59.03Z" fill="#898E9B"/>
</g>
</svg>
