<svg width="340" height="110" viewBox="0 0 340 110" fill="none" xmlns="http://www.w3.org/2000/svg">
<path d="M37.7427 60.7827C25.7625 57.339 17.0321 53.1193 11.5513 48.1235C6.11898 43.0793 3.40283 36.8709 3.40283 29.4985C3.40283 21.1561 6.72526 14.2687 13.3701 8.83643C20.0635 3.35563 28.7454 0.615234 39.416 0.615234C46.6914 0.615234 53.1665 2.02181 58.8413 4.83496C64.5646 7.64811 68.9784 11.5283 72.0825 16.4756C75.2352 21.4229 76.8115 26.8309 76.8115 32.6997H62.77C62.77 26.2974 60.7329 21.2773 56.6587 17.6396C52.5845 13.9535 46.8369 12.1104 39.416 12.1104C32.5286 12.1104 27.1449 13.6382 23.2646 16.6938C19.4329 19.701 17.5171 23.8965 17.5171 29.2803C17.5171 33.597 19.3359 37.259 22.9736 40.2661C26.6598 43.2248 32.8924 45.9409 41.6714 48.4146C50.4989 50.8882 57.3862 53.6286 62.3335 56.6357C67.3293 59.5944 71.0155 63.0623 73.3921 67.0396C75.8172 71.0168 77.0298 75.6973 77.0298 81.0811C77.0298 89.666 73.6831 96.5534 66.9897 101.743C60.2964 106.884 51.3477 109.455 40.1436 109.455C32.8682 109.455 26.0778 108.073 19.7725 105.308C13.4671 102.495 8.59261 98.6632 5.14893 93.813C1.75374 88.9627 0.0561523 83.4577 0.0561523 77.2979H14.0977C14.0977 83.7002 16.45 88.7687 21.1548 92.5034C25.908 96.1896 32.2376 98.0327 40.1436 98.0327C47.516 98.0327 53.1665 96.5291 57.0952 93.522C61.0239 90.5148 62.9883 86.4163 62.9883 81.2266C62.9883 76.0368 61.1694 72.0353 57.5317 69.2222C53.894 66.3605 47.2977 63.5474 37.7427 60.7827ZM153.494 80.3535H109.114L99.147 108H84.7417L125.193 2.07031H137.416L177.939 108H163.607L153.494 80.3535ZM113.334 68.8584H149.347L131.304 19.313L113.334 68.8584ZM206.241 96.5776H256.441V108H192.199V2.07031H206.241V96.5776ZM332.25 59.0366H286.343V96.5776H339.671V108H272.374V2.07031H338.944V13.5654H286.343V47.6143H332.25V59.0366Z" fill="white"/>
</svg>
