<svg width="73" height="94" viewBox="0 0 73 94" fill="none" xmlns="http://www.w3.org/2000/svg">
<g opacity="0.8">
<path opacity="0.8" d="M71.82 51.7L1.82999 93.01L0.97998 92.59V41.47L71.82 0.580017L72.65 1.00002L71.82 51.7Z" fill="#75C1F8"/>
<path opacity="0.8" d="M72.7 52.19L1.85999 93.08V41.96L72.7 1.07001V52.19Z" fill="#B8DFFB"/>
<path opacity="0.8" d="M59.6 46.49L14.96 72.26V48.37L59.6 22.6V46.49Z" fill="#3FA9F5"/>
<path opacity="0.8" d="M56 30.4L18.57 52.01V50.98L56 29.37V30.4Z" fill="white"/>
<path opacity="0.8" d="M56 34.01L18.57 55.62V54.59L56 32.98V34.01Z" fill="white"/>
<path opacity="0.8" d="M56 37.62L18.57 59.22V58.19L56 36.59V37.62Z" fill="white"/>
<path opacity="0.8" d="M72.7 6.00001L1.85999 46.89V41.96L72.7 1.07001V6.00001Z" fill="#3FA9F5"/>
</g>
</svg>
