<svg width="73" height="94" viewBox="0 0 73 94" fill="none" xmlns="http://www.w3.org/2000/svg">
<g opacity="0.8">
<path opacity="0.8" d="M71.7 51.82L1.69998 93.13L0.859985 92.71V41.59L71.7 0.690002L72.52 1.12L71.7 51.82Z" fill="#454C61"/>
<path opacity="0.8" d="M72.54 52.24L1.69998 93.13V42.01L72.54 1.12V52.24Z" fill="#30384F"/>
<path opacity="0.8" d="M8.34998 47.6L6.37997 48.74V47.13L8.34998 45.99V47.6Z" fill="white"/>
<path opacity="0.8" d="M37.17 30.97L10.55 46.34V44.72L37.17 29.36V30.97Z" fill="#F5D533"/>
<path opacity="0.8" d="M8.34998 51.38L6.37997 52.52V50.91L8.34998 49.77V51.38Z" fill="white"/>
<path opacity="0.8" d="M22.84 43.02L10.55 50.12V48.5L22.84 41.41V43.02Z" fill="#F5D533"/>
<path opacity="0.8" d="M8.34998 55.16L6.37997 56.3V54.69L8.34998 53.55V55.16Z" fill="white"/>
<path opacity="0.8" d="M29.21 43.13L10.55 53.9V52.28L29.21 41.51V43.13Z" fill="#F5D533"/>
<path opacity="0.8" d="M8.34998 58.94L6.37997 60.08V58.47L8.34998 57.33V58.94Z" fill="white"/>
<path opacity="0.8" d="M32.82 44.82L10.55 57.68V56.06L32.82 43.21V44.82Z" fill="#F5D533"/>
<path opacity="0.8" d="M8.34998 64.44L6.37997 65.58V63.97L8.34998 62.83V64.44Z" fill="white"/>
<path opacity="0.8" d="M24.65 55.03L10.55 63.18V61.56L24.65 53.42V55.03Z" fill="#FF6469"/>
<path opacity="0.8" d="M8.34998 68.22L6.37997 69.36V67.75L8.34998 66.61V68.22Z" fill="white"/>
<path opacity="0.8" d="M36.43 52.01L10.55 66.96V65.34L36.43 50.4V52.01Z" fill="#FF6469"/>
<path opacity="0.8" d="M8.34998 72L6.37997 73.14V71.53L8.34998 70.39V72Z" fill="white"/>
<path opacity="0.8" d="M20.75 64.85L10.55 70.74V69.12L20.75 63.24V64.85Z" fill="#FF6469"/>
<path opacity="0.8" d="M8.34998 75.78L6.37997 76.92V75.31L8.34998 74.17V75.78Z" fill="white"/>
<path opacity="0.8" d="M28.8 63.98L10.55 74.52V72.91L28.8 62.37V63.98Z" fill="#FF6469"/>
<path opacity="0.8" d="M50.31 23L51.81 22.13V20.91L50.31 21.77V23Z" fill="white"/>
<path opacity="0.8" d="M63.94 13.9L53.48 19.94V21.17L63.94 15.13V13.9Z" fill="white"/>
<path opacity="0.8" d="M50.31 25.88L51.81 25.02V23.79L50.31 24.66V25.88Z" fill="white"/>
<path opacity="0.8" d="M58.31 20.03L53.48 22.82V24.05L58.31 21.26V20.03Z" fill="white"/>
<path opacity="0.8" d="M50.31 28.77L51.81 27.9V26.67L50.31 27.54V28.77Z" fill="white"/>
<path opacity="0.8" d="M60.81 21.47L53.48 25.7V26.93L60.81 22.7V21.47Z" fill="white"/>
<path opacity="0.8" d="M50.31 31.65L51.81 30.78V29.55L50.31 30.42V31.65Z" fill="white"/>
<path opacity="0.8" d="M62.23 23.54L53.48 28.59V29.82L62.23 24.77V23.54Z" fill="white"/>
<path opacity="0.8" d="M50.31 35.84L51.81 34.98V33.75L50.31 34.61V35.84Z" fill="white"/>
<path opacity="0.8" d="M60.3 28.85L53.49 32.78V34.01L60.3 30.08V28.85Z" fill="white"/>
<path opacity="0.8" d="M50.31 38.73L51.81 37.86V36.63L50.31 37.5V38.73Z" fill="white"/>
<path opacity="0.8" d="M53.49 35.66V36.89L65.99 29.67V28.44L53.49 35.66Z" fill="white"/>
<path opacity="0.8" d="M50.31 41.61L51.81 40.74V39.51L50.31 40.38V41.61Z" fill="white"/>
<path opacity="0.8" d="M58.41 35.7L53.49 38.55V39.78L58.41 36.93V35.7Z" fill="white"/>
<path opacity="0.8" d="M50.31 44.49L51.81 43.63V42.4L50.31 43.26V44.49Z" fill="white"/>
<path opacity="0.8" d="M53.49 42.66L62.3 37.57V36.34L53.49 41.43V42.66Z" fill="white"/>
</g>
</svg>
