<svg width="481" height="128" viewBox="0 0 481 128" fill="none" xmlns="http://www.w3.org/2000/svg">
<path d="M43.4375 37.2344L50.3281 0.8125H60.8398L49.4844 52H38.8672L30.5352 17.7578L22.2031 52H11.5859L0.230469 0.8125H10.7422L17.668 37.1641L26.1055 0.8125H35.0352L43.4375 37.2344ZM97.3672 29.8164H77.1172V43.5273H100.883V52H66.5703V0.8125H100.812V9.35547H77.1172V21.5547H97.3672V29.8164ZM117.617 43.5273H140.012V52H107.07V0.8125H117.617V43.5273ZM184.027 34.9492C183.629 40.457 181.59 44.793 177.91 47.957C174.254 51.1211 169.426 52.7031 163.426 52.7031C156.863 52.7031 151.695 50.5 147.922 46.0938C144.172 41.6641 142.297 35.5938 142.297 27.8828V24.7539C142.297 19.832 143.164 15.4961 144.898 11.7461C146.633 7.99609 149.105 5.125 152.316 3.13281C155.551 1.11719 159.301 0.109375 163.566 0.109375C169.473 0.109375 174.23 1.69141 177.84 4.85547C181.449 8.01953 183.535 12.4609 184.098 18.1797H173.551C173.293 14.875 172.367 12.4844 170.773 11.0078C169.203 9.50781 166.801 8.75781 163.566 8.75781C160.051 8.75781 157.414 10.0234 155.656 12.5547C153.922 15.0625 153.031 18.9648 152.984 24.2617V28.1289C152.984 33.6602 153.816 37.7031 155.48 40.2578C157.168 42.8125 159.816 44.0898 163.426 44.0898C166.684 44.0898 169.109 43.3516 170.703 41.875C172.32 40.375 173.246 38.0664 173.48 34.9492H184.027ZM233 27.5664C233 32.6055 232.109 37.0234 230.328 40.8203C228.547 44.6172 225.992 47.5469 222.664 49.6094C219.359 51.6719 215.562 52.7031 211.273 52.7031C207.031 52.7031 203.246 51.6836 199.918 49.6445C196.59 47.6055 194.012 44.6992 192.184 40.9258C190.355 37.1289 189.43 32.7695 189.406 27.8477V25.3164C189.406 20.2773 190.309 15.8477 192.113 12.0273C193.941 8.18359 196.508 5.24219 199.812 3.20312C203.141 1.14062 206.938 0.109375 211.203 0.109375C215.469 0.109375 219.254 1.14062 222.559 3.20312C225.887 5.24219 228.453 8.18359 230.258 12.0273C232.086 15.8477 233 20.2656 233 25.2812V27.5664ZM222.312 25.2461C222.312 19.8789 221.352 15.8008 219.43 13.0117C217.508 10.2227 214.766 8.82812 211.203 8.82812C207.664 8.82812 204.934 10.2109 203.012 12.9766C201.09 15.7188 200.117 19.75 200.094 25.0703V27.5664C200.094 32.793 201.055 36.8477 202.977 39.7305C204.898 42.6133 207.664 44.0547 211.273 44.0547C214.812 44.0547 217.531 42.6719 219.43 39.9062C221.328 37.1172 222.289 33.0625 222.312 27.7422V25.2461ZM254.445 0.8125L267.594 37.9375L280.672 0.8125H294.523V52H283.941V38.0078L284.996 13.8555L271.18 52H263.938L250.156 13.8906L251.211 38.0078V52H240.664V0.8125H254.445ZM334.531 29.8164H314.281V43.5273H338.047V52H303.734V0.8125H337.977V9.35547H314.281V21.5547H334.531V29.8164ZM398.586 9.35547H382.906V52H372.359V9.35547H356.891V0.8125H398.586V9.35547ZM445.695 27.5664C445.695 32.6055 444.805 37.0234 443.023 40.8203C441.242 44.6172 438.688 47.5469 435.359 49.6094C432.055 51.6719 428.258 52.7031 423.969 52.7031C419.727 52.7031 415.941 51.6836 412.613 49.6445C409.285 47.6055 406.707 44.6992 404.879 40.9258C403.051 37.1289 402.125 32.7695 402.102 27.8477V25.3164C402.102 20.2773 403.004 15.8477 404.809 12.0273C406.637 8.18359 409.203 5.24219 412.508 3.20312C415.836 1.14062 419.633 0.109375 423.898 0.109375C428.164 0.109375 431.949 1.14062 435.254 3.20312C438.582 5.24219 441.148 8.18359 442.953 12.0273C444.781 15.8477 445.695 20.2656 445.695 25.2812V27.5664ZM435.008 25.2461C435.008 19.8789 434.047 15.8008 432.125 13.0117C430.203 10.2227 427.461 8.82812 423.898 8.82812C420.359 8.82812 417.629 10.2109 415.707 12.9766C413.785 15.7188 412.812 19.75 412.789 25.0703V27.5664C412.789 32.793 413.75 36.8477 415.672 39.7305C417.594 42.6133 420.359 44.0547 423.969 44.0547C427.508 44.0547 430.227 42.6719 432.125 39.9062C434.023 37.1172 434.984 33.0625 435.008 27.7422V25.2461ZM4.75 127V81.5H17.4688C21.1979 81.5 24.5417 82.3542 27.5 84.0625C30.4583 85.75 32.7604 88.1771 34.4062 91.3438C36.0729 94.5104 36.9062 98.1146 36.9062 102.156V106.344C36.9062 110.406 36.0833 114.01 34.4375 117.156C32.7917 120.302 30.4688 122.729 27.4688 124.438C24.4896 126.146 21.0625 127 17.1875 127H4.75ZM8.59375 84.7812V123.75H17.2188C22.0104 123.75 25.8542 122.167 28.75 119C31.6458 115.812 33.0938 111.51 33.0938 106.094V102.094C33.0938 96.8646 31.6667 92.6771 28.8125 89.5312C25.9583 86.3854 22.1979 84.8021 17.5312 84.7812H8.59375ZM71.8125 105.188H50.5312V123.75H75V127H46.6875V81.5H74.8438V84.7812H50.5312V101.938H71.8125V105.188ZM108.875 115.812C108.875 113.292 107.99 111.302 106.219 109.844C104.448 108.365 101.208 106.969 96.5 105.656C91.7917 104.323 88.3542 102.875 86.1875 101.312C83.1042 99.1042 81.5625 96.2083 81.5625 92.625C81.5625 89.1458 82.9896 86.3229 85.8438 84.1562C88.7188 81.9688 92.3854 80.875 96.8438 80.875C99.8646 80.875 102.562 81.4583 104.938 82.625C107.333 83.7917 109.188 85.4167 110.5 87.5C111.812 89.5833 112.469 91.9062 112.469 94.4688H108.594C108.594 91.3646 107.531 88.875 105.406 87C103.281 85.1042 100.427 84.1562 96.8438 84.1562C93.3646 84.1562 90.5938 84.9375 88.5312 86.5C86.4688 88.0417 85.4375 90.0625 85.4375 92.5625C85.4375 94.875 86.3646 96.7604 88.2188 98.2188C90.0729 99.6771 93.0417 100.969 97.125 102.094C101.208 103.198 104.302 104.354 106.406 105.562C108.51 106.75 110.094 108.177 111.156 109.844C112.219 111.51 112.75 113.479 112.75 115.75C112.75 119.333 111.312 122.208 108.438 124.375C105.583 126.542 101.812 127.625 97.125 127.625C93.9167 127.625 90.9688 127.052 88.2812 125.906C85.6146 124.76 83.5833 123.156 82.1875 121.094C80.8125 119.031 80.125 116.667 80.125 114H83.9688C83.9688 117.208 85.1667 119.74 87.5625 121.594C89.9583 123.448 93.1458 124.375 97.125 124.375C100.667 124.375 103.51 123.594 105.656 122.031C107.802 120.469 108.875 118.396 108.875 115.812ZM125.75 127H121.906V81.5H125.75V127ZM170.969 121.594C169.635 123.49 167.542 124.969 164.688 126.031C161.854 127.094 158.677 127.625 155.156 127.625C151.594 127.625 148.427 126.771 145.656 125.062C142.885 123.354 140.74 120.938 139.219 117.812C137.698 114.688 136.927 111.104 136.906 107.062V101.312C136.906 95 138.5 90.0208 141.688 86.375C144.875 82.7083 149.156 80.875 154.531 80.875C159.219 80.875 162.99 82.0729 165.844 84.4688C168.698 86.8438 170.396 90.125 170.938 94.3125H167.094C166.531 90.9792 165.167 88.4583 163 86.75C160.854 85.0208 158.042 84.1562 154.562 84.1562C150.312 84.1562 146.948 85.6667 144.469 88.6875C141.99 91.7083 140.75 95.9688 140.75 101.469V106.844C140.75 110.302 141.333 113.365 142.5 116.031C143.688 118.677 145.375 120.729 147.562 122.188C149.771 123.646 152.302 124.375 155.156 124.375C158.469 124.375 161.312 123.854 163.688 122.812C165.229 122.125 166.375 121.323 167.125 120.406V108.656H154.906V105.406H170.969V121.594ZM215.75 127H211.906L185.75 88.0625V127H181.875V81.5H185.75L211.938 120.469V81.5H215.75V127ZM268.625 115.812C268.625 113.292 267.74 111.302 265.969 109.844C264.198 108.365 260.958 106.969 256.25 105.656C251.542 104.323 248.104 102.875 245.938 101.312C242.854 99.1042 241.312 96.2083 241.312 92.625C241.312 89.1458 242.74 86.3229 245.594 84.1562C248.469 81.9688 252.135 80.875 256.594 80.875C259.615 80.875 262.312 81.4583 264.688 82.625C267.083 83.7917 268.938 85.4167 270.25 87.5C271.562 89.5833 272.219 91.9062 272.219 94.4688H268.344C268.344 91.3646 267.281 88.875 265.156 87C263.031 85.1042 260.177 84.1562 256.594 84.1562C253.115 84.1562 250.344 84.9375 248.281 86.5C246.219 88.0417 245.188 90.0625 245.188 92.5625C245.188 94.875 246.115 96.7604 247.969 98.2188C249.823 99.6771 252.792 100.969 256.875 102.094C260.958 103.198 264.052 104.354 266.156 105.562C268.26 106.75 269.844 108.177 270.906 109.844C271.969 111.51 272.5 113.479 272.5 115.75C272.5 119.333 271.062 122.208 268.188 124.375C265.333 126.542 261.562 127.625 256.875 127.625C253.667 127.625 250.719 127.052 248.031 125.906C245.365 124.76 243.333 123.156 241.938 121.094C240.562 119.031 239.875 116.667 239.875 114H243.719C243.719 117.208 244.917 119.74 247.312 121.594C249.708 123.448 252.896 124.375 256.875 124.375C260.417 124.375 263.26 123.594 265.406 122.031C267.552 120.469 268.625 118.396 268.625 115.812ZM313.031 112.812C312.51 117.604 310.792 121.271 307.875 123.812C304.979 126.354 301.115 127.625 296.281 127.625C292.906 127.625 289.917 126.781 287.312 125.094C284.729 123.406 282.729 121.021 281.312 117.938C279.896 114.833 279.177 111.292 279.156 107.312V101.406C279.156 97.3646 279.865 93.7812 281.281 90.6562C282.698 87.5312 284.729 85.125 287.375 83.4375C290.042 81.7292 293.104 80.875 296.562 80.875C301.438 80.875 305.281 82.1979 308.094 84.8438C310.927 87.4688 312.573 91.1042 313.031 95.75H309.156C308.198 88.0208 304 84.1562 296.562 84.1562C292.438 84.1562 289.146 85.6979 286.688 88.7812C284.25 91.8646 283.031 96.125 283.031 101.562V107.125C283.031 112.375 284.219 116.562 286.594 119.688C288.99 122.812 292.219 124.375 296.281 124.375C300.302 124.375 303.333 123.417 305.375 121.5C307.417 119.562 308.677 116.667 309.156 112.812H313.031ZM356.094 127H352.219V105.188H326.219V127H322.375V81.5H326.219V101.938H352.219V81.5H356.094V127ZM401.312 106.719C401.312 110.906 400.583 114.583 399.125 117.75C397.688 120.917 395.625 123.354 392.938 125.062C390.25 126.771 387.146 127.625 383.625 127.625C378.312 127.625 374.021 125.729 370.75 121.938C367.479 118.125 365.844 112.99 365.844 106.531V101.844C365.844 97.6979 366.573 94.0312 368.031 90.8438C369.51 87.6354 371.594 85.1771 374.281 83.4688C376.969 81.7396 380.062 80.875 383.562 80.875C387.062 80.875 390.146 81.7188 392.812 83.4062C395.5 85.0938 397.573 87.4792 399.031 90.5625C400.49 93.6458 401.25 97.2188 401.312 101.281V106.719ZM397.469 101.781C397.469 96.3021 396.229 92.0104 393.75 88.9062C391.271 85.8021 387.875 84.25 383.562 84.25C379.333 84.25 375.958 85.8125 373.438 88.9375C370.938 92.0417 369.688 96.3854 369.688 101.969V106.719C369.688 112.115 370.938 116.396 373.438 119.562C375.938 122.708 379.333 124.281 383.625 124.281C387.979 124.281 391.375 122.729 393.812 119.625C396.25 116.5 397.469 112.156 397.469 106.594V101.781ZM444.625 106.719C444.625 110.906 443.896 114.583 442.438 117.75C441 120.917 438.938 123.354 436.25 125.062C433.562 126.771 430.458 127.625 426.938 127.625C421.625 127.625 417.333 125.729 414.062 121.938C410.792 118.125 409.156 112.99 409.156 106.531V101.844C409.156 97.6979 409.885 94.0312 411.344 90.8438C412.823 87.6354 414.906 85.1771 417.594 83.4688C420.281 81.7396 423.375 80.875 426.875 80.875C430.375 80.875 433.458 81.7188 436.125 83.4062C438.812 85.0938 440.885 87.4792 442.344 90.5625C443.802 93.6458 444.562 97.2188 444.625 101.281V106.719ZM440.781 101.781C440.781 96.3021 439.542 92.0104 437.062 88.9062C434.583 85.8021 431.188 84.25 426.875 84.25C422.646 84.25 419.271 85.8125 416.75 88.9375C414.25 92.0417 413 96.3854 413 101.969V106.719C413 112.115 414.25 116.396 416.75 119.562C419.25 122.708 422.646 124.281 426.938 124.281C431.292 124.281 434.688 122.729 437.125 119.625C439.562 116.5 440.781 112.156 440.781 106.594V101.781ZM458.188 123.75H480.656V127H454.312V81.5H458.188V123.75Z" fill="black"/>
</svg>
